<?xml version="1.0" encoding="utf-8"?>
<!-- Generator: Adobe Illustrator 15.0.0, SVG Export Plug-In . SVG Version: 6.00 Build 0)  -->
<!DOCTYPE svg PUBLIC "-//W3C//DTD SVG 1.1//EN" "http://www.w3.org/Graphics/SVG/1.1/DTD/svg11.dtd">
<svg version="1.1" id="Layer_1" xmlns="http://www.w3.org/2000/svg" xmlns:xlink="http://www.w3.org/1999/xlink" x="0px" y="0px"
	 width="144px" height="144px" viewBox="0 0 144 144" enable-background="new 0 0 144 144" xml:space="preserve">
<polygon fill="#FFFFFF" points="37.426,65.28 37.426,77.396 46.483,71.339 "/>
<polygon fill="#FFFFFF" points="68.688,56.485 68.688,39.601 40.325,58.509 52.995,66.984 "/>
<polygon fill="#FFFFFF" points="104.294,58.509 75.929,39.601 75.929,56.485 91.624,66.984 "/>
<polygon fill="#FFFFFF" points="40.324,84.169 68.688,103.077 68.688,86.191 52.995,75.695 "/>
<polygon fill="#FFFFFF" points="75.929,86.191 75.929,103.077 104.294,84.169 91.624,75.695 "/>
<polygon fill="#FFFFFF" points="72.309,62.774 59.505,71.338 72.309,79.903 85.113,71.338 "/>
<g>
	<defs>
		<rect id="SVGID_1_" width="144" height="144"/>
	</defs>
	<clipPath id="SVGID_2_">
		<use xlink:href="#SVGID_1_"  overflow="visible"/>
	</clipPath>
	<path clip-path="url(#SVGID_2_)" fill="#FFFFFF" d="M72.309,3.212c-37.624,0-68.125,30.501-68.125,68.126
		c0,37.626,30.502,68.125,68.125,68.125c37.626,0,68.126-30.499,68.126-68.125C140.435,33.713,109.935,3.212,72.309,3.212
		 M114.432,84.173c0,0.16-0.012,0.317-0.032,0.475c-0.008,0.051-0.021,0.104-0.029,0.154c-0.019,0.103-0.036,0.204-0.063,0.305
		c-0.015,0.06-0.037,0.117-0.057,0.175c-0.028,0.088-0.057,0.177-0.093,0.266c-0.024,0.06-0.054,0.117-0.08,0.175
		c-0.039,0.082-0.079,0.162-0.123,0.242c-0.032,0.055-0.069,0.11-0.104,0.166c-0.049,0.075-0.099,0.148-0.152,0.219
		c-0.04,0.056-0.081,0.106-0.126,0.157c-0.056,0.066-0.116,0.134-0.179,0.195c-0.048,0.049-0.095,0.098-0.145,0.143
		c-0.065,0.06-0.135,0.117-0.206,0.172c-0.054,0.043-0.106,0.085-0.163,0.124c-0.021,0.014-0.04,0.031-0.061,0.045l-38.502,25.669
		c-0.608,0.405-1.308,0.609-2.009,0.609c-0.699,0-1.399-0.204-2.008-0.609L31.798,87.185c-0.021-0.014-0.039-0.031-0.059-0.045
		c-0.057-0.039-0.111-0.081-0.164-0.124c-0.071-0.055-0.14-0.112-0.206-0.172c-0.05-0.045-0.097-0.094-0.145-0.143
		c-0.063-0.062-0.122-0.129-0.181-0.195c-0.042-0.051-0.084-0.102-0.124-0.157c-0.053-0.07-0.104-0.144-0.152-0.219
		c-0.037-0.056-0.071-0.111-0.104-0.166c-0.044-0.08-0.084-0.16-0.123-0.242c-0.027-0.058-0.055-0.115-0.081-0.175
		c-0.036-0.089-0.065-0.178-0.093-0.266c-0.02-0.058-0.04-0.115-0.056-0.175c-0.027-0.101-0.044-0.202-0.063-0.305
		c-0.009-0.051-0.022-0.104-0.029-0.154c-0.021-0.157-0.033-0.314-0.033-0.475V58.504c0-0.16,0.012-0.317,0.033-0.472
		c0.007-0.053,0.02-0.104,0.029-0.157c0.019-0.102,0.037-0.204,0.063-0.304c0.017-0.06,0.037-0.117,0.056-0.175
		c0.028-0.089,0.058-0.177,0.093-0.264c0.025-0.06,0.053-0.12,0.081-0.177c0.039-0.083,0.079-0.162,0.123-0.24
		c0.033-0.058,0.067-0.113,0.104-0.168c0.048-0.075,0.099-0.148,0.152-0.219c0.04-0.053,0.082-0.106,0.124-0.157
		c0.059-0.066,0.118-0.133,0.181-0.195c0.048-0.048,0.095-0.097,0.145-0.142c0.065-0.06,0.134-0.117,0.206-0.173
		c0.053-0.042,0.107-0.084,0.164-0.124c0.02-0.014,0.038-0.031,0.059-0.044l38.503-25.668c1.217-0.811,2.8-0.811,4.017,0
		l38.502,25.668c0.021,0.013,0.04,0.031,0.061,0.044c0.057,0.04,0.109,0.082,0.163,0.124c0.071,0.056,0.141,0.113,0.206,0.173
		c0.05,0.044,0.097,0.093,0.145,0.142c0.062,0.062,0.123,0.129,0.179,0.195c0.045,0.051,0.086,0.104,0.126,0.157
		c0.054,0.071,0.104,0.144,0.152,0.219c0.034,0.056,0.071,0.111,0.104,0.168c0.044,0.078,0.084,0.157,0.123,0.24
		c0.026,0.057,0.056,0.117,0.08,0.177c0.036,0.087,0.064,0.175,0.093,0.264c0.02,0.058,0.042,0.115,0.057,0.175
		c0.027,0.1,0.045,0.202,0.063,0.304c0.009,0.053,0.021,0.104,0.029,0.157c0.021,0.155,0.032,0.312,0.032,0.472V84.173z"/>
	<polygon clip-path="url(#SVGID_2_)" fill="#FFFFFF" points="107.192,77.396 107.192,65.28 98.136,71.338 	"/>
</g>
</svg>
