<?xml version="1.0" encoding="utf-8"?>
<!-- Generator: Adobe Illustrator 15.0.0, SVG Export Plug-In . SVG Version: 6.00 Build 0)  -->
<!DOCTYPE svg PUBLIC "-//W3C//DTD SVG 1.1//EN" "http://www.w3.org/Graphics/SVG/1.1/DTD/svg11.dtd">
<svg version="1.1" id="Layer_1" xmlns="http://www.w3.org/2000/svg" xmlns:xlink="http://www.w3.org/1999/xlink" x="0px" y="0px"
	 width="22.656px" height="22.655px" viewBox="1.172 1.173 22.656 22.655" enable-background="new 1.172 1.173 22.656 22.655"
	 xml:space="preserve">
<circle fill="#EA4B8A" cx="12.75" cy="12.312" r="10.188"/>
<path fill="#C22362" d="M12.5,23.828c-6.256,0-11.328-5.071-11.328-11.327S6.244,1.173,12.5,1.173s11.328,5.072,11.328,11.328
	S18.756,23.828,12.5,23.828z M21.773,13.689c-2.223-0.293-4.193-0.313-5.95-0.043c0.727,2.074,1.336,4.308,1.815,6.662
	C19.861,18.842,21.422,16.455,21.773,13.689z M15.854,21.22c-0.449-2.627-1.066-4.987-1.861-7.165
	c-2.975,0.893-5.288,2.803-7.229,5.818c1.585,1.234,3.572,1.977,5.736,1.977C13.684,21.85,14.811,21.621,15.854,21.22z M3.15,12.5
	c0,2.312,0.845,4.426,2.236,6.059c2.373-3.479,5.045-5.291,7.961-6.134c-0.24-0.565-0.489-1.123-0.757-1.666
	c-2.605,0.785-5.69,1.197-9.422,1.369C3.164,12.252,3.15,12.374,3.15,12.5z M3.361,10.533c2.945-0.13,5.82-0.457,8.455-1.254
	C10.812,7.486,9.634,5.802,8.289,4.16C5.807,5.415,3.96,7.739,3.361,10.533z M12.5,3.15c-0.819,0-1.61,0.116-2.368,0.314
	c1.299,1.43,2.482,3.17,3.528,5.165c1.818-0.751,3.488-1.785,4.945-3.201C16.966,4.013,14.836,3.15,12.5,3.15z M19.736,6.582
	c-1.525,1.546-3.268,2.698-5.336,3.543c0.283,0.609,0.55,1.243,0.808,1.89c2.099-0.325,4.312-0.253,6.62-0.017
	C21.719,9.949,20.958,8.073,19.736,6.582z"/>
</svg>
