<?xml version="1.0" encoding="utf-8"?>
<!-- Generator: Adobe Illustrator 15.0.0, SVG Export Plug-In . SVG Version: 6.00 Build 0)  -->
<!DOCTYPE svg PUBLIC "-//W3C//DTD SVG 1.1//EN" "http://www.w3.org/Graphics/SVG/1.1/DTD/svg11.dtd">
<svg version="1.1" id="Layer_1" xmlns="http://www.w3.org/2000/svg" xmlns:xlink="http://www.w3.org/1999/xlink" x="0px" y="0px"
	 width="206.71px" height="206.625px" viewBox="0 0 206.71 206.625" enable-background="new 0 0 206.71 206.625"
	 xml:space="preserve">
<g>
	<path fill="#FFFFFF" d="M63.016,0.026L57.311,0.01L0,0v206.625l127.648-0.025l-31.683-31.032l5.805-4.12
		c10.216-7.316,18.612-16.197,24.065-26.895H62.169V62.037h30.086c33.959,0,56.944,21.4,56.944,54.466
		c0,10.479-1.873,19.023-5.408,27.295l-0.32,0.752c-5.379,12.468-14.092,22.875-24.535,31.306l30.092,30.554
		c34.338-19.635,57.684-50.06,57.684-96.144C206.71,36.003,156.332,0.026,63.016,0.026z"/>
</g>
</svg>
