<?xml version="1.0" encoding="utf-8"?>
<!-- Generator: Adobe Illustrator 15.0.0, SVG Export Plug-In . SVG Version: 6.00 Build 0)  -->
<!DOCTYPE svg PUBLIC "-//W3C//DTD SVG 1.1//EN" "http://www.w3.org/Graphics/SVG/1.1/DTD/svg11.dtd">
<svg version="1.1" id="Layer_2" xmlns="http://www.w3.org/2000/svg" xmlns:xlink="http://www.w3.org/1999/xlink" x="0px" y="0px"
	 width="111.001px" height="81.601px" viewBox="0 0 111.001 81.601" enable-background="new 0 0 111.001 81.601"
	 xml:space="preserve">
<g>
	<path fill="#FFFFFF" d="M59.699,64.5c11.7-5.4,21.9-15.3,25.201-27C74.399,33.6,72,26.1,72,19.5C72,8.7,80.1,0,91.2,0
		C105,0,111,12.3,111,22.2c0,21.3-18.9,49.2-54.301,59.401L59.699,64.5z M2.999,64.5c11.4-5.4,21.601-15.3,25.2-27
		c-10.5-3.9-13.2-11.4-13.2-18C14.999,8.7,23.1,0,34.499,0C48,0,54.3,12.3,54.3,22.2c0,21.3-18.9,49.2-54.301,59.401L2.999,64.5z"/>
</g>
</svg>
