<?xml version="1.0" encoding="utf-8"?>
<!-- Generator: Adobe Illustrator 15.0.0, SVG Export Plug-In . SVG Version: 6.00 Build 0)  -->
<!DOCTYPE svg PUBLIC "-//W3C//DTD SVG 1.1//EN" "http://www.w3.org/Graphics/SVG/1.1/DTD/svg11.dtd">
<svg version="1.1" id="Layer_2" xmlns="http://www.w3.org/2000/svg" xmlns:xlink="http://www.w3.org/1999/xlink" x="0px" y="0px"
	 width="111.001px" height="81.601px" viewBox="0 0 111.001 81.601" enable-background="new 0 0 111.001 81.601"
	 xml:space="preserve">
<g>
	<path fill="#FFFFFF" d="M51.301,17.1c-11.7,5.4-21.9,15.3-25.201,27C36.601,48,39,55.5,39,62.101c0,10.8-8.1,19.5-19.2,19.5
		C6,81.601,0,69.3,0,59.4C0,38.1,18.9,10.2,54.301,0L51.301,17.1z M108.001,17.1c-11.4,5.4-21.601,15.3-25.2,27
		c10.5,3.9,13.2,11.4,13.2,18c0,10.8-8.101,19.5-19.5,19.5C63,81.601,56.7,69.3,56.7,59.4c0-21.3,18.9-49.2,54.301-59.4
		L108.001,17.1z"/>
</g>
</svg>
