<?xml version="1.0" encoding="utf-8"?>
<!-- Generator: Adobe Illustrator 15.0.2, SVG Export Plug-In  -->
<!DOCTYPE svg PUBLIC "-//W3C//DTD SVG 1.1//EN" "http://www.w3.org/Graphics/SVG/1.1/DTD/svg11.dtd" [
	<!ENTITY ns_flows "http://ns.adobe.com/Flows/1.0/">
]>
<svg version="1.1"
	 xmlns="http://www.w3.org/2000/svg" xmlns:xlink="http://www.w3.org/1999/xlink" xmlns:a="http://ns.adobe.com/AdobeSVGViewerExtensions/3.0/"
	 x="0px" y="0px" width="250px" height="250px" viewBox="100 67 250 250"
	 overflow="visible" enable-background="new 100 67 250 250" xml:space="preserve">
<defs>
</defs>
<rect display="none" fill="#FF0000" width="450" height="385"/>
<circle fill="#FFFFFF" cx="225.667" cy="192.334" r="121.333"/>
<path display="none" fill-rule="evenodd" clip-rule="evenodd" d="M214.676,69.736c7.245,0,14.491,0,21.736,0
	c62.466,9.986,98.758,46.147,110.852,106.505c0,10.505,0,21.011,0,31.517c-11.753,59.974-47.633,95.823-108.679,106.505
	c-9.056,0-18.113,0-27.169,0c-62.639-11.988-99.933-49.318-108.679-115.199c0-4.71,0-9.419,0-14.128
	C111.84,118.325,149.643,80.417,214.676,69.736z M174.464,86.038c-35.494,16.924-66.428,53.365-66.294,106.505
	c0.086,34.073,13.712,60.198,31.517,79.335c22.451,24.132,54.692,40.712,97.811,36.952c53.716-4.686,95.138-45.991,103.246-95.639
	c5.104-31.264-0.882-53.613-11.955-74.988c-19.495-37.635-60.049-67.529-115.2-61.947C197.271,77.909,184.89,81.067,174.464,86.038z
	"/>
<path display="none" fill-rule="evenodd" clip-rule="evenodd" fill="#FFFFFF" d="M213.589,76.257
	c55.151-5.582,95.705,24.312,115.2,61.947c11.073,21.375,17.06,43.725,11.955,74.988c-8.108,49.647-49.53,90.953-103.246,95.639
	c-43.119,3.76-75.36-12.82-97.811-36.952c-17.805-19.138-31.431-45.263-31.517-79.335c-0.134-53.141,30.8-89.582,66.294-106.505
	C184.89,81.067,197.271,77.909,213.589,76.257z M189.68,109.948c-5.569,16.657-14.678,29.565-27.17,39.124
	c-5.205,3.983-12.259,5.119-14.128,10.868c11.631,1.022,21.852-9.854,29.343-18.476c3.307-3.806,7.969-8.935,10.868-14.128
	c2.49-4.458,7.843-14.176,3.26-17.388C191.128,109.948,190.404,109.948,189.68,109.948z M292.925,152.333
	c-2.169-6.475-9.51-5.77-14.128-8.694c-11.019-6.977-17.09-18.192-20.649-32.604c-1.087,0-2.175,0-3.261,0
	C254.614,132.734,272.001,151.829,292.925,152.333z M176.638,159.94c0.394,23.386,34.038,31.522,45.645,9.781
	c5.553,7.521,9.99,14.968,20.649,15.215c29.265,0.679,30.454-47.218,0-46.732c-9.589,0.153-16.387,6.913-20.649,13.042
	C212.737,127.158,176.222,135.249,176.638,159.94z M213.589,209.933c3.284,0.588,4.528,2.303,6.521,2.173
	c7.317-0.474,19.562-7.303,24.996-8.693c-0.056-4.73,1.632-4.998-1.086-7.607c-4.258-0.635-2.775,4.47-5.435,5.434
	c-7.454,0.516-12.622,3.316-18.475,5.434c-6.528-3.979-22.138,1.126-20.649-10.867c-1.086,0-2.173,0-3.26,0
	C191.851,209.873,202.536,207.952,213.589,209.933z M274.449,254.49c-7.456-10.447-13.943-20.834-29.344-22.821
	c-22.493-2.904-47.257-3.101-56.513,9.78c-1.972,2.743-3.66,9.451-5.434,14.128c-1.438,3.793-7.373,11.665-1.087,13.042
	c2.683-0.45,3.653-4.679,4.347-6.521c3.338-8.863,4.902-18.171,11.955-22.822c7.627-5.03,34.358-4.046,48.905-2.174
	c20.278,2.609,21.427,30.325,35.864,31.518C282.65,263.164,277.893,259.314,274.449,254.49z"/>
<path display="none" fill-rule="evenodd" clip-rule="evenodd" d="M191.853,109.948c4.583,3.212-0.771,12.93-3.26,17.388
	c-2.899,5.194-7.562,10.322-10.868,14.128c-7.492,8.622-17.712,19.498-29.343,18.476c1.87-5.749,8.924-6.885,14.128-10.868
	c12.492-9.559,21.601-22.467,27.17-39.124C190.404,109.948,191.128,109.948,191.853,109.948z"/>
<path display="none" fill-rule="evenodd" clip-rule="evenodd" d="M254.887,111.034c1.086,0,2.174,0,3.261,0
	c3.56,14.412,9.631,25.627,20.649,32.604c4.618,2.924,11.959,2.22,14.128,8.694C272.001,151.829,254.614,132.734,254.887,111.034z"
	/>
<path display="none" fill-rule="evenodd" clip-rule="evenodd" d="M222.283,151.246c4.263-6.128,11.061-12.889,20.649-13.042
	c30.454-0.486,29.265,47.411,0,46.732c-10.659-0.247-15.097-7.694-20.649-15.215c-11.607,21.741-45.251,13.605-45.645-9.781
	C176.222,135.249,212.737,127.158,222.283,151.246z M185.333,168.634c6.079-10.223,14.187-18.417,24.996-23.91
	C195.011,133.493,173.909,153.28,185.333,168.634z M234.238,145.812c0.258,4.089,4.455,4.238,7.606,5.434
	c5.978,5.978,10.319,13.591,16.303,19.562C266.707,154.205,250.55,137.748,234.238,145.812z M213.589,150.159
	c-0.715,1.459-2.323,2.024-4.347,2.174c7.803,6.454,4.459,19.933-7.607,17.389c-1.816-1.806-4.4-2.846-4.347-6.521
	c-4.733,1.425-5.936,6.382-7.607,10.868C205.499,186.566,227.672,163.967,213.589,150.159z M228.805,152.333
	c-8.803,15.916,8.067,32.533,23.908,23.909c-1.463-5.058-3.798-9.244-7.607-11.955c-6.068,11.104-21.532-1.96-13.041-11.955
	C230.978,152.333,229.892,152.333,228.805,152.333z"/>
<path display="none" fill-rule="evenodd" clip-rule="evenodd" fill="#FFFFFF" d="M210.329,144.725
	c-10.809,5.493-18.917,13.687-24.996,23.91C173.909,153.28,195.011,133.493,210.329,144.725z"/>
<path display="none" fill-rule="evenodd" clip-rule="evenodd" fill="#FFFFFF" d="M258.147,170.808
	c-5.983-5.971-10.325-13.584-16.303-19.562c-3.151-1.196-7.349-1.345-7.606-5.434C250.55,137.748,266.707,154.205,258.147,170.808z"
	/>
<path display="none" fill-rule="evenodd" clip-rule="evenodd" fill="#FFFFFF" d="M189.68,174.068
	c1.672-4.486,2.874-9.443,7.607-10.868c-0.053,3.675,2.531,4.715,4.347,6.521c12.067,2.544,15.41-10.935,7.607-17.389
	c2.024-0.15,3.632-0.715,4.347-2.174C227.672,163.967,205.499,186.566,189.68,174.068z"/>
<path display="none" fill-rule="evenodd" clip-rule="evenodd" fill="#FFFFFF" d="M232.064,152.333
	c-8.491,9.995,6.973,23.059,13.041,11.955c3.81,2.711,6.145,6.897,7.607,11.955c-15.841,8.624-32.711-7.993-23.908-23.909
	C229.892,152.333,230.978,152.333,232.064,152.333z"/>
<path display="none" fill-rule="evenodd" clip-rule="evenodd" d="M196.2,195.805c1.087,0,2.174,0,3.26,0
	c-1.488,11.993,14.122,6.889,20.649,10.867c5.853-2.117,11.021-4.918,18.475-5.434c2.659-0.964,1.177-6.068,5.435-5.434
	c2.718,2.609,1.03,2.877,1.086,7.607c-5.434,1.391-17.679,8.22-24.996,8.693c-1.993,0.13-3.237-1.585-6.521-2.173
	C202.536,207.952,191.851,209.873,196.2,195.805z"/>
<path display="none" fill-rule="evenodd" clip-rule="evenodd" d="M283.144,268.619c-14.438-1.192-15.586-28.908-35.864-31.518
	c-14.547-1.872-41.278-2.856-48.905,2.174c-7.053,4.651-8.617,13.959-11.955,22.822c-0.694,1.843-1.665,6.071-4.347,6.521
	c-6.286-1.377-0.352-9.249,1.087-13.042c1.774-4.677,3.462-11.385,5.434-14.128c9.255-12.881,34.02-12.685,56.513-9.78
	c15.4,1.987,21.888,12.374,29.344,22.821C277.893,259.314,282.65,263.164,283.144,268.619z"/>
<path display="none" fill-rule="evenodd" clip-rule="evenodd" d="M214.063,68.967c7.291,0,14.582,0,21.873,0
	c66.07,11.213,104.946,49.618,112.643,119.205c0,2.552,0,5.103,0,7.656c-7.555,68.999-45.814,107.291-110.456,119.204
	c-8.749,0-17.498,0-26.247,0c-64.428-11.762-102.486-49.891-110.456-118.111c0-3.28,0-6.562,0-9.842
	C109.604,118.343,148.119,79.941,214.063,68.967z M171.412,86.465c-34.614,17.351-64.637,54.042-64.523,106.082
	c0.055,25.306,9.718,50.376,19.685,65.617c21.873,33.447,65.423,55.901,111.549,51.4c48.826-4.765,85.146-39.656,98.427-77.647
	c13.604-38.919,2.34-84.83-16.404-110.456C298.3,91.597,255.682,70.962,212.97,75.529C197.333,77.201,183.213,80.55,171.412,86.465z
	"/>
<path display="none" fill-rule="evenodd" clip-rule="evenodd" fill="#FFFFFF" d="M212.97,75.529
	c42.711-4.566,85.33,16.068,107.175,45.933c18.744,25.625,30.009,71.537,16.404,110.456c-13.28,37.991-49.601,72.883-98.427,77.647
	c-46.126,4.501-89.677-17.953-111.549-51.4c-9.967-15.241-19.63-40.312-19.685-65.617c-0.113-52.04,29.909-88.731,64.523-106.082
	C183.213,80.55,197.333,77.201,212.97,75.529z M183.442,124.742c-8.76,3.982-21.04,8.83-20.779,17.498
	c11.982-6.294,23.829-15.087,37.184-18.592c4.324-1.135,11.18,1.069,14.217-4.375C204.534,114.244,192.511,120.62,183.442,124.742z
	 M275.307,128.023c-7.424-4.95-16.835-8.46-27.341-9.843c-0.231-1.321-1.214-0.672-2.188,0c-0.852,0.242-1.271,0.916-1.093,2.188
	c9.03,4.676,18.148,6.808,26.246,12.03c3.867,2.493,7.562,4.877,10.937,7.655c3.108,2.559,5.87,8.634,10.937,6.562
	C289.378,138.932,281.956,132.457,275.307,128.023z M177.974,160.832c-0.167,26.372,37.163,31.363,45.932,8.749
	c3.69,20.226,36.534,18.874,42.651,3.281c11.143-28.405-28.198-44.946-42.651-20.779
	C212.339,127.113,178.117,138.293,177.974,160.832z M192.191,203.483c2.611,6.312,10.5,3.797,16.404,2.187
	c3.155,1.584,6.49,2.988,8.749,5.469c8.009,0.532,23.358-1.612,26.247-7.655c1.375-2.878,3.147-10.466-4.375-10.937
	c-2.531,2.431,0.371,4.265,0,7.655c-7.094,7.863-23.084,5.905-30.621,0c-5.048-0.673-6.294,2.455-10.937,2.188
	c1.443-4.357,7.759-8.553,4.375-14.217c-1.093,0-2.187,0-3.281,0C197.6,194.31,192.877,196.878,192.191,203.483z M238.123,231.917
	c-29.349-2.227-67.049-0.953-76.553,16.404c3.07,4.39,4.669-1.201,6.562-2.187c20.725-10.797,69.537-12.094,92.958-3.281
	c6.045,2.274,13.019,9.153,17.498,3.281C270.274,239.674,255.124,233.207,238.123,231.917z"/>
<path display="none" fill-rule="evenodd" clip-rule="evenodd" d="M214.063,119.274c-3.037,5.443-9.893,3.24-14.217,4.375
	c-13.354,3.505-25.202,12.297-37.184,18.592c-0.261-8.668,12.019-13.516,20.779-17.498
	C192.511,120.62,204.534,114.244,214.063,119.274z"/>
<path display="none" fill-rule="evenodd" clip-rule="evenodd" d="M292.805,146.615c-5.066,2.072-7.828-4.003-10.937-6.562
	c-3.374-2.778-7.069-5.162-10.937-7.655c-8.098-5.222-17.216-7.354-26.246-12.03c-0.179-1.271,0.241-1.946,1.093-2.188
	c0.974-0.672,1.956-1.321,2.188,0c10.506,1.382,19.917,4.893,27.341,9.843C281.956,132.457,289.378,138.932,292.805,146.615z"/>
<path display="none" fill-rule="evenodd" clip-rule="evenodd" d="M223.906,152.083c14.453-24.167,53.794-7.626,42.651,20.779
	c-6.117,15.593-38.961,16.945-42.651-3.281c-8.769,22.614-46.099,17.623-45.932-8.749
	C178.117,138.293,212.339,127.113,223.906,152.083z M184.536,161.925c3.332-10.521,14.074-13.631,22.966-18.592
	C194.678,140.426,181.666,149.479,184.536,161.925z M262.184,159.738c-0.991-9.228-9.442-16.791-19.686-13.124
	C252.255,147.794,257.882,153.103,262.184,159.738z M219.532,155.364c-4.752-15.955-33.046,3.583-32.809,15.311
	C197.833,187.383,224.887,173.343,219.532,155.364z M259.996,170.674c1.442-9.462-12.403-18.393-16.404-17.498
	c18.622,11.26-14.407,26.182-12.03,6.562c0.578-4.77,2.503-4.602,6.562-7.656c-2.187,0-4.374,0-6.562,0
	C213.405,173.703,256.887,191.069,259.996,170.674z"/>
<path display="none" fill-rule="evenodd" clip-rule="evenodd" fill="#FFFFFF" d="M207.502,143.333
	c-8.892,4.961-19.634,8.071-22.966,18.592C181.666,149.479,194.678,140.426,207.502,143.333z"/>
<path display="none" fill-rule="evenodd" clip-rule="evenodd" fill="#FFFFFF" d="M242.498,146.615
	c10.243-3.667,18.694,3.896,19.686,13.124C257.882,153.103,252.255,147.794,242.498,146.615z"/>
<path display="none" fill-rule="evenodd" clip-rule="evenodd" fill="#FFFFFF" d="M186.723,170.674
	c-0.238-11.727,28.057-31.266,32.809-15.311C224.887,173.343,197.833,187.383,186.723,170.674z M207.502,171.768
	c9.933-0.827,10.246-22.612-4.375-16.404C193.919,159.273,198.343,172.53,207.502,171.768z"/>
<path display="none" fill-rule="evenodd" clip-rule="evenodd" d="M203.127,155.364c14.621-6.208,14.308,15.578,4.375,16.404
	C198.343,172.53,193.919,159.273,203.127,155.364z"/>
<path display="none" fill-rule="evenodd" clip-rule="evenodd" d="M198.753,188.172c1.094,0,2.188,0,3.281,0
	c3.385,5.665-2.931,9.86-4.375,14.217c4.643,0.268,5.889-2.86,10.937-2.188c7.537,5.905,23.527,7.863,30.621,0
	c0.371-3.391-2.531-5.225,0-7.655c7.522,0.471,5.75,8.059,4.375,10.937c-2.889,6.043-18.238,8.188-26.247,7.655
	c-2.259-2.48-5.594-3.885-8.749-5.469c-5.904,1.61-13.793,4.125-16.404-2.187C192.877,196.878,197.6,194.31,198.753,188.172z"/>
<path display="none" fill-rule="evenodd" clip-rule="evenodd" d="M278.588,246.135c-4.479,5.872-11.453-1.007-17.498-3.281
	c-23.422-8.812-72.233-7.516-92.958,3.281c-1.893,0.985-3.491,6.576-6.562,2.187c9.504-17.357,47.205-18.631,76.553-16.404
	C255.124,233.207,270.274,239.674,278.588,246.135z"/>
<path display="none" fill-rule="evenodd" clip-rule="evenodd" fill="#FFFFFF" d="M231.562,152.083c2.188,0,4.375,0,6.562,0
	c-4.059,3.054-5.983,2.886-6.562,7.656c-2.377,19.62,30.652,4.698,12.03-6.562c4.001-0.895,17.847,8.036,16.404,17.498
	C256.887,191.069,213.405,173.703,231.562,152.083z"/>
<path display="none" fill-rule="evenodd" clip-rule="evenodd" d="M213.463,68.395c7.325,0,14.65,0,21.974,0
	c65.987,10.923,104.486,49.333,113.168,117.562c0,4.395,0,8.79,0,13.185c-8.843,66.604-46.545,104.345-109.871,116.464
	c-9.156,0-18.312,0-27.468,0c-61.716-10.799-97.988-47.043-109.872-107.674c0-10.621,0-21.242,0-31.863
	C113.622,115.048,150.312,78.491,213.463,68.395z M140.948,109.047c-21.928,21.928-42.151,58.121-32.961,106.575
	c9.531,50.254,52.553,89.97,104.378,94.49c37.491,3.27,70.148-10.007,93.391-31.863c21.242-19.976,37.673-46.069,37.356-87.897
	c-0.222-29.154-12.561-53.489-23.073-68.121c-20.543-28.589-58.589-52.493-107.674-47.245
	C179.486,78.502,158.305,91.69,140.948,109.047z"/>
<path display="none" fill-rule="evenodd" clip-rule="evenodd" fill="#FFFFFF" d="M212.365,74.987
	c49.085-5.248,87.131,18.655,107.674,47.245c10.513,14.631,22.852,38.966,23.073,68.121c0.316,41.828-16.114,67.921-37.356,87.897
	c-23.243,21.856-55.9,35.133-93.391,31.863c-51.825-4.521-94.847-44.236-104.378-94.49c-9.19-48.455,11.034-84.647,32.961-106.575
	C158.305,91.69,179.486,78.502,212.365,74.987z M203.575,107.948c-11.542-0.036-24.597,4.609-26.369,12.086
	c7.036-0.244,16.718-6.405,27.468-6.592c4.993-0.087,11.131,4.707,13.185-1.099C216.058,108.647,208.526,107.963,203.575,107.948z
	 M246.425,118.936c7.172,1.267,13.783-3.25,23.073-2.198c8.997,1.02,16.851,9.642,20.875,3.296
	C282.377,111.508,253.911,106.003,246.425,118.936z M277.189,150.798c-5.122-21.905-43.111-20.176-46.146,2.197
	c-3.994-21.717-37.608-19.951-43.949-3.296c-12.203,32.053,36.521,47.939,45.047,14.284
	C241.392,194.294,284.117,180.432,277.189,150.798z M207.97,199.142c4.327,7.653,22.976,2.176,28.566,7.691
	c5.593-2.465,10.79-5.324,17.58-6.593c-0.443-5.05,0.566-11.554-4.396-12.086c-4.997,1.02,0.562,6.88-2.197,8.79
	c-10.387,6.571-20.087,0.919-34.06,0c-1.502-3.256,0.644-4.784,0-9.889C205.259,186.905,206.904,197.257,207.97,199.142z
	 M258.511,245.288c-27.581,13.536-68.697,8.226-86.798-12.086c-0.232-1.328-1.219-0.676-2.198,0
	c-0.856,0.242-1.277,0.92-1.099,2.197c16.466,25.446,64.149,27.496,91.193,14.283c8.646-4.224,18.328-8.31,20.876-16.48
	C272.143,232.745,266.923,241.159,258.511,245.288z"/>
<path display="none" fill-rule="evenodd" clip-rule="evenodd" d="M217.858,112.343c-2.054,5.805-8.192,1.011-13.185,1.099
	c-10.75,0.188-20.432,6.348-27.468,6.592c1.772-7.477,14.828-12.122,26.369-12.086C208.526,107.963,216.058,108.647,217.858,112.343
	z"/>
<path display="none" fill-rule="evenodd" clip-rule="evenodd" d="M290.373,120.034c-4.024,6.346-11.878-2.277-20.875-3.296
	c-9.29-1.052-15.901,3.464-23.073,2.198C253.911,106.003,282.377,111.508,290.373,120.034z"/>
<path display="none" fill-rule="evenodd" clip-rule="evenodd" d="M232.142,163.983c-8.526,33.656-57.25,17.77-45.047-14.284
	c6.341-16.654,39.955-18.42,43.949,3.296c3.035-22.374,41.024-24.102,46.146-2.197C284.117,180.432,241.392,194.294,232.142,163.983
	z M242.03,171.674c10.611,9.407,27.015,2.709,29.665-7.691c4.259-16.709-8.483-25.473-20.875-23.073
	C234.176,144.133,231.525,162.361,242.03,171.674z M214.562,177.167c20.966-5.07,12.544-40.129-10.987-34.06
	C181.022,148.923,192.241,182.565,214.562,177.167z"/>
<path display="none" fill-rule="evenodd" clip-rule="evenodd" fill="#FFFFFF" d="M250.82,140.91
	c12.392-2.4,25.134,6.364,20.875,23.073c-2.65,10.4-19.054,17.098-29.665,7.691C231.525,162.361,234.176,144.133,250.82,140.91z
	 M254.116,166.18c11.657,0.086,11.058-22.525-3.296-16.481C241.921,153.447,245.337,166.115,254.116,166.18z"/>
<path display="none" fill-rule="evenodd" clip-rule="evenodd" fill="#FFFFFF" d="M203.575,143.107
	c23.531-6.069,31.953,28.99,10.987,34.06C192.241,182.565,181.022,148.923,203.575,143.107z M217.858,167.279
	c9.281-2.042,7.101-19.809-4.395-16.48C200.075,154.674,208.499,169.338,217.858,167.279z"/>
<path display="none" fill-rule="evenodd" clip-rule="evenodd" d="M250.82,149.699c14.354-6.044,14.953,16.567,3.296,16.481
	C245.337,166.115,241.921,153.447,250.82,149.699z"/>
<path display="none" fill-rule="evenodd" clip-rule="evenodd" d="M213.463,150.798c11.496-3.329,13.676,14.438,4.395,16.48
	C208.499,169.338,200.075,154.674,213.463,150.798z"/>
<path display="none" fill-rule="evenodd" clip-rule="evenodd" d="M213.463,187.056c0.644,5.104-1.502,6.633,0,9.889
	c13.973,0.919,23.673,6.571,34.06,0c2.76-1.91-2.8-7.771,2.197-8.79c4.962,0.532,3.952,7.036,4.396,12.086
	c-6.79,1.269-11.987,4.128-17.58,6.593c-5.591-5.516-24.24-0.038-28.566-7.691C206.904,197.257,205.259,186.905,213.463,187.056z"/>
<path display="none" fill-rule="evenodd" clip-rule="evenodd" d="M280.485,233.202c-2.548,8.171-12.229,12.257-20.876,16.48
	c-27.044,13.213-74.728,11.163-91.193-14.283c-0.179-1.277,0.243-1.955,1.099-2.197c0.979-0.676,1.965-1.328,2.198,0
	c18.101,20.312,59.217,25.622,86.798,12.086C266.923,241.159,272.143,232.745,280.485,233.202z"/>
<path fill-rule="evenodd" clip-rule="evenodd" d="M213.402,67.737c7.732,0,15.464,0,23.196,0
	c65.033,11.181,103.05,49.379,112.665,115.979c0,5.522,0,11.045,0,16.568C339.96,266.46,302.2,304.179,238.808,316.264
	c-9.205,0-18.41,0-27.614,0c-62.026-10.875-98.347-47.456-110.456-108.247c0-10.678,0-21.355,0-32.032
	C113.003,114.613,150.005,77.977,213.402,67.737z M131.665,117.442c-10.328,12.977-22.866,31.639-25.405,60.751
	c-6.601,75.692,47.352,127.43,106.038,132.547c39.422,3.438,73.566-10.786,96.097-33.137c19.349-19.194,35.457-47.374,35.346-86.155
	c-0.063-22.207-6.786-46.248-19.882-66.274c-18.97-29.008-60.889-56.228-111.561-50.81
	C175.234,78.328,149.102,95.535,131.665,117.442z"/>
<path fill-rule="evenodd" clip-rule="evenodd" fill="#FFFFFF" d="M212.298,74.365c50.672-5.418,92.591,21.801,111.561,50.81
	c13.096,20.026,19.818,44.067,19.882,66.274c0.111,38.781-15.997,66.961-35.346,86.155c-22.53,22.351-56.675,36.575-96.097,33.137
	c-58.686-5.117-112.639-56.854-106.038-132.547c2.539-29.112,15.077-47.774,25.405-60.751
	C149.102,95.535,175.234,78.328,212.298,74.365z M193.521,93.142c-17.766-1.206-28.753,13.713-27.614,27.614
	c5.623-0.369,5.978-7.029,7.732-9.941c3.126-5.188,5.93-10.848,12.15-12.15c16.171-3.384,18.991,7.107,28.718,11.045
	C215.671,100.362,203.113,93.793,193.521,93.142z M233.284,114.129c9.411-2.078,7.131-9.554,15.464-11.046
	c17.244-3.087,16.11,12.942,27.614,15.464C276.211,96.916,235.349,88,233.284,114.129z M182.475,139.534
	c-19.967,16.752-3.671,50.442,23.196,45.287c7.871-1.51,11.385-7.478,17.673-14.359c3.921,10.01,10.79,16.175,22.091,16.568
	c33.54,1.167,32.742-44.488,8.837-50.81c-11.912-3.15-23.454,3.518-32.033,13.254C218.547,133.167,193.893,129.955,182.475,139.534z
	 M298.453,193.657c-0.061,1.412-1.415,1.529-1.104,3.313c-6.398,40.088-60.925,67.002-102.724,47.496
	c-16.129-7.526-22.832-16.721-28.719-32.032c-0.798-2.077-0.881-7.867-5.522-7.731c-3.633,3.021-0.196,8.234,1.104,12.149
	c7.773,23.408,35.97,39.765,62.96,39.765c39.499,0,75.769-27.075,77.319-62.96C300.662,193.657,299.559,193.657,298.453,193.657z
	 M235.494,199.18c-2.742,1.678-4.498,4.34-8.837,4.419c-8.54-1.177-16.159-8.684-23.196-7.732
	c2.342,6.595,14.552,13.649,24.3,13.255c3.403-0.138,6.916-3.307,11.046-4.418c6.048-1.629,18.132,0.391,14.359-7.732
	C249.143,195.575,244.008,201.498,235.494,199.18z"/>
<path fill-rule="evenodd" clip-rule="evenodd" d="M214.507,109.71c-9.728-3.938-12.547-14.43-28.718-11.045
	c-6.22,1.302-9.024,6.961-12.15,12.15c-1.754,2.912-2.109,9.572-7.732,9.941c-1.139-13.901,9.849-28.82,27.614-27.614
	C203.113,93.793,215.671,100.362,214.507,109.71z"/>
<path fill-rule="evenodd" clip-rule="evenodd" d="M276.362,118.547c-11.504-2.521-10.37-18.551-27.614-15.464
	c-8.333,1.492-6.053,8.968-15.464,11.046C235.349,88,276.211,96.916,276.362,118.547z"/>
<path fill-rule="evenodd" clip-rule="evenodd" d="M222.239,149.475c8.579-9.737,20.121-16.405,32.033-13.254
	c23.905,6.322,24.703,51.977-8.837,50.81c-11.302-0.393-18.17-6.559-22.091-16.568c-6.288,6.882-9.802,12.849-17.673,14.359
	c-26.867,5.155-43.163-28.535-23.196-45.287C193.893,129.955,218.547,133.167,222.239,149.475z M179.161,158.311
	c-0.737,18.229,14.551,23.671,26.509,20.987c17.433-3.914,15.564-30.02,6.627-36.451c-4.155-2.989-9.159-4.689-18.777-2.209
	C183.389,143.25,179.475,150.54,179.161,158.311z M245.435,181.507c5.944,0.24,18.466-3.349,20.986-13.254
	c4.645-18.245-8.623-27.58-20.986-26.51C217.86,144.129,223.18,180.607,245.435,181.507z"/>
<path fill-rule="evenodd" clip-rule="evenodd" fill="#FFFFFF" d="M193.521,140.638c9.618-2.48,14.623-0.78,18.777,2.209
	c8.937,6.431,10.806,32.537-6.627,36.451c-11.958,2.685-27.246-2.757-26.509-20.987C179.475,150.54,183.389,143.25,193.521,140.638z
	 M213.402,158.311c-0.13-5.775-3.833-9.959-11.045-7.732C181.298,157.084,213.885,179.754,213.402,158.311z"/>
<path fill-rule="evenodd" clip-rule="evenodd" fill="#FFFFFF" d="M245.435,141.743c12.363-1.07,25.631,8.265,20.986,26.51
	c-2.521,9.906-15.042,13.495-20.986,13.254C223.18,180.607,217.86,144.129,245.435,141.743z M234.389,164.938
	c3.931,12.233,26.13,0.67,14.359-11.045C238.287,149.358,232.048,157.652,234.389,164.938z"/>
<path fill-rule="evenodd" clip-rule="evenodd" d="M202.357,150.579c7.212-2.228,10.916,1.957,11.045,7.732
	C213.885,179.754,181.298,157.084,202.357,150.579z"/>
<path fill-rule="evenodd" clip-rule="evenodd" d="M248.748,153.893c11.771,11.715-10.429,23.278-14.359,11.045
	C232.048,157.652,238.287,149.358,248.748,153.893z"/>
<path fill-rule="evenodd" clip-rule="evenodd" d="M301.768,193.657c-1.551,35.885-37.82,62.96-77.319,62.96
	c-26.99,0-55.187-16.356-62.96-39.765c-1.3-3.915-4.737-9.129-1.104-12.149c4.642-0.136,4.724,5.654,5.522,7.731
	c5.887,15.312,12.59,24.506,28.719,32.032c41.799,19.506,96.325-7.408,102.724-47.496c-0.311-1.784,1.044-1.901,1.104-3.313
	C299.559,193.657,300.662,193.657,301.768,193.657z"/>
<path fill-rule="evenodd" clip-rule="evenodd" d="M253.167,196.971c3.772,8.123-8.312,6.104-14.359,7.732
	c-4.13,1.111-7.643,4.28-11.046,4.418c-9.748,0.395-21.958-6.66-24.3-13.255c7.037-0.951,14.656,6.556,23.196,7.732
	c4.339-0.079,6.095-2.741,8.837-4.419C244.008,201.498,249.143,195.575,253.167,196.971z"/>
</svg>
