<?xml version="1.0" encoding="utf-8"?>
<!-- Generator: Adobe Illustrator 15.0.2, SVG Export Plug-In  -->
<!DOCTYPE svg PUBLIC "-//W3C//DTD SVG 1.1//EN" "http://www.w3.org/Graphics/SVG/1.1/DTD/svg11.dtd" [
	<!ENTITY ns_flows "http://ns.adobe.com/Flows/1.0/">
]>
<svg version="1.1"
	 xmlns="http://www.w3.org/2000/svg" xmlns:xlink="http://www.w3.org/1999/xlink" xmlns:a="http://ns.adobe.com/AdobeSVGViewerExtensions/3.0/"
	 x="0px" y="0px" width="200px" height="72px" viewBox="-0.213 -0.909 200 72"
	 overflow="visible" enable-background="new -0.213 -0.909 200 72" xml:space="preserve">
<defs>
</defs>
<polygon fill="#ADB0AB" points="0,62.128 0,69.947 0.827,69.947 0.963,69.947 0.963,66.287 3.37,66.287 3.37,65.574 3.37,65.439 
	0.963,65.439 0.963,62.835 3.556,62.835 3.556,62.128 3.556,61.99 0,61.99 "/>
<polygon fill="#ADB0AB" points="10.407,66.285 13.108,66.285 13.108,65.574 13.108,65.439 10.407,65.439 10.407,62.839 
	13.236,62.839 13.236,62.126 13.236,61.992 13.104,61.992 9.446,61.992 9.446,69.945 13.312,69.945 13.312,69.236 13.312,69.099 
	10.407,69.099 "/>
<path fill="#ADB0AB" d="M21.602,61.99H19.41v0.139v7.818h1.912c2.422-0.004,2.856-1.404,2.856-3.947
	C24.179,63.404,23.865,61.996,21.602,61.99 M20.371,69.099v-6.264h0.769c1.867,0.043,2.036,0.496,2.081,2.709
	c-0.048,3.168-0.123,3.514-2.144,3.555H20.371z"/>
<polygon fill="#ADB0AB" points="31.54,66.285 34.24,66.285 34.24,65.574 34.24,65.439 31.54,65.439 31.54,62.839 34.371,62.839 
	34.371,62.126 34.371,61.992 34.232,61.992 30.579,61.992 30.579,69.945 34.446,69.945 34.446,69.236 34.446,69.099 31.54,69.099 
	"/>
<path fill="#ADB0AB" d="M44.697,68.916c0.035-2.307-0.074-2.875-0.818-3.123c0.733-0.328,0.89-1.008,0.873-1.822
	c0-0.686-0.09-1.188-0.411-1.521c-0.326-0.336-0.838-0.453-1.595-0.457h-2.277v7.953h0.823h0.135v-3.723h1.168
	c1.066,0.008,1.13,0.77,1.148,1.322c0,0.131-0.008,0.24-0.008,0.322c0,0.021,0.003,0.035,0.003,0.037
	c0.013,0.42,0.039,1.666,0.113,1.943l0.028,0.098h0.757h0.148L44.774,69.8C44.752,69.488,44.697,69.195,44.697,68.916
	 M43.791,63.957c-0.033,1.248-0.367,1.385-1.378,1.418h-0.986v-2.539h1.275C43.49,62.871,43.758,62.947,43.791,63.957"/>
<path fill="#ADB0AB" d="M53.847,61.992h-0.817h-0.1l-2.541,7.953h0.879h0.099l0.613-2.02h2.846l0.622,2.02h0.823h0.187l-2.509-7.953
	H53.847z M54.559,67.076h-2.292l1.142-3.768L54.559,67.076z"/>
<polygon fill="#ADB0AB" points="63.15,61.992 62.328,61.992 62.189,61.992 62.189,69.947 62.328,69.947 65.723,69.947 
	65.723,69.236 65.723,69.099 63.15,69.099 "/>
<path fill="#ADB0AB" d="M80.45,67.468v0.137c-0.022,0.977-0.316,1.643-1.101,1.643c-1.504-0.002-1.51-1.238-1.522-3.135
	c0-0.047,0.002-0.094,0.002-0.143c0-0.053-0.002-0.1-0.002-0.146c0.013-1.898,0.019-3.131,1.522-3.133
	c0.792,0.006,1.056,0.588,1.07,1.355c0,0.051,0,0.1-0.003,0.15l-0.005,0.143h0.852h0.136v-0.137v-0.141
	c-0.003-0.586-0.109-2.217-2.05-2.221c-2.334,0-2.485,2.062-2.488,3.521c0,0.215,0.007,0.422,0.007,0.607
	c0,0.184-0.007,0.387-0.007,0.602c0.003,1.461,0.157,3.523,2.488,3.523c1.964-0.008,2.1-1.934,2.104-2.486v-0.141h-0.864H80.45z"/>
<path fill="#ADB0AB" d="M91.792,68.916c0.034-2.305-0.076-2.879-0.817-3.123c0.733-0.328,0.888-1.006,0.873-1.822
	c-0.003-0.689-0.094-1.188-0.414-1.521c-0.325-0.338-0.836-0.453-1.594-0.457h-2.278v7.955h0.826h0.135v-3.725h1.166
	c1.07,0.004,1.132,0.771,1.147,1.322c0,0.131-0.005,0.244-0.005,0.32c0,0.023,0.003,0.039,0.003,0.041
	c0.011,0.418,0.037,1.664,0.111,1.941l0.026,0.1h0.761h0.146L91.867,69.8C91.845,69.492,91.792,69.195,91.792,68.916 M88.522,62.835
	h1.275c0.787,0.035,1.056,0.111,1.089,1.121c-0.033,1.248-0.368,1.385-1.382,1.418h-0.982V62.835z"/>
<polygon fill="#ADB0AB" points="99.164,66.285 101.864,66.285 101.864,65.574 101.864,65.439 99.164,65.439 99.164,62.839 
	101.989,62.839 101.989,62.126 101.989,61.992 101.856,61.992 98.203,61.992 98.203,69.945 102.071,69.945 102.071,69.236 
	102.071,69.099 99.164,69.099 "/>
<path fill="#ADB0AB" d="M110.358,61.992h-2.193v0.137v7.816h1.911c2.422-0.006,2.857-1.402,2.86-3.945
	C112.934,63.404,112.622,61.998,110.358,61.992 M111.975,65.544c-0.047,3.168-0.121,3.514-2.144,3.555h-0.704v-6.264h0.767
	C111.762,62.878,111.933,63.332,111.975,65.544"/>
<polygon fill="#ADB0AB" points="119.514,61.992 119.375,61.992 119.375,69.947 120.201,69.947 120.339,69.947 120.339,61.992 
	120.201,61.992 "/>
<polygon fill="#ADB0AB" points="126.253,62.705 126.253,62.839 128.147,62.839 128.147,69.945 128.972,69.945 129.107,69.945 
	129.107,62.839 130.864,62.839 131,62.839 131,62.126 131,61.992 126.253,61.992 "/>
<path fill="#ADB0AB" d="M146.491,61.992v4.965c-0.015,1.025,0.005,2.289-1.445,2.291c-1.453-0.002-1.433-1.266-1.447-2.291v-4.965
	h-0.821h-0.138v5.469c0.003,2.033,1.151,2.629,2.406,2.631c1.253-0.002,2.405-0.598,2.405-2.631v-5.469h-0.822H146.491z"/>
<polygon fill="#ADB0AB" points="158.144,61.992 158.144,68.31 155.189,61.992 154.052,61.992 153.916,61.992 153.916,69.947 
	154.052,69.947 154.741,69.947 154.876,69.947 154.876,63.556 157.835,69.947 158.969,69.947 159.105,69.947 159.105,61.992 
	158.279,61.992 "/>
<polygon fill="#ADB0AB" points="165.834,61.996 165.695,61.996 165.695,69.945 166.52,69.945 166.656,69.945 166.656,61.996 
	166.52,61.996 "/>
<path fill="#ADB0AB" d="M175.54,61.841c-2.334,0-2.485,2.062-2.489,3.523c0,0.211,0.007,0.416,0.007,0.605
	c0,0.186-0.007,0.389-0.007,0.605c0.004,1.457,0.158,3.516,2.489,3.516c2.325,0,2.479-2.059,2.482-3.52
	c0-0.213-0.003-0.414-0.003-0.602c0-0.191,0.003-0.395,0.003-0.605C178.02,63.904,177.865,61.845,175.54,61.841 M177.059,65.97
	c0,0.043-0.003,0.09-0.003,0.143c-0.012,1.898-0.017,3.131-1.516,3.135c-1.506-0.004-1.51-1.236-1.523-3.127v-0.15v-0.154
	c0.014-1.895,0.021-3.125,1.523-3.127c1.499,0.002,1.504,1.236,1.516,3.137C177.056,65.876,177.059,65.923,177.059,65.97"/>
<polygon fill="#ADB0AB" points="188.784,61.992 188.646,61.992 188.646,68.308 185.692,61.992 184.555,61.992 184.415,61.992 
	184.415,69.945 184.555,69.945 185.244,69.945 185.38,69.945 185.38,63.566 188.341,69.945 189.472,69.945 189.605,69.945 
	189.605,61.992 "/>
<polygon fill="#ADB0AB" points="24.821,34.014 0.101,34.014 0.101,0.371 9.936,0.371 9.936,28.237 24.821,28.237 "/>
<path fill="#ADB0AB" d="M57.354,31.423c-1.621,0.998-3.703,1.76-6.47,2.278c-2.775,0.521-5.093,0.783-6.969,0.783
	c-7.284,0-12.673-1.626-16.167-4.881c-3.495-3.257-5.242-7.23-5.242-11.911c0-4.525,1.93-8.583,5.791-12.17
	c3.863-3.594,9.242-5.389,16.137-5.389c1.853,0,4.015,0.255,6.492,0.768c2.469,0.515,5.214,1.514,6.428,2.212v6.771l-4.135-0.007
	c0,0,0-2.421-0.007-2.423c-5.156-2.497-12.972-2.342-17.183,2.07c-2.076,2.176-3.126,4.682-3.143,7.527
	c-0.021,3.398,0.915,6.115,2.792,8.148c1.887,2.023,4.82,3.039,8.803,3.039c1.179,0,2.163-0.052,2.944-0.154
	c0.787-0.104,1.426-0.229,1.93-0.377v-8.779h-7.338v-3.771h15.336V31.423z"/>
<path fill="#ADB0AB" d="M189.656,23.28c0,3.223-1.328,5.875-3.975,7.944c-2.648,2.075-6.73,3.111-12.242,3.111
	c-5.418,0-9.373-0.998-11.878-2.988c-2.499-1.992-3.754-4.681-3.754-8.067V0.22h9.835v23.192c0,1.562,0.52,2.79,1.562,3.686
	c1.038,0.896,2.706,1.345,5.007,1.345c2.392,0,4.132-0.495,5.226-1.483c1.087-0.997,1.634-2.576,1.634-4.753V0.22h8.586V23.28z"/>
<path fill="#ADB0AB" d="M155.426,3.302c-1.22-0.691-3.874-2.039-6.347-2.543C146.609,0.254,144.447,0,142.591,0
	c-1.31,0-2.563,0.064-3.771,0.192V0.187c-0.036,0.006-0.077,0.012-0.121,0.022c-0.487,0.049-0.969,0.117-1.437,0.195
	c-0.173,0.027-0.335,0.056-0.508,0.083c-0.407,0.07-0.805,0.15-1.195,0.24c-0.368,0.082-0.722,0.174-1.075,0.267
	c-0.043,0.01-0.081,0.021-0.114,0.034c-3.044,0.836-5.634,2.16-7.741,4.004c-2.505,2.189-4.188,4.667-5.062,7.436
	c-0.603,1.684-0.904,3.43-0.904,5.188c0,4.614,1.746,8.527,5.24,11.728c1.201,1.103,2.644,2.003,4.287,2.726
	c3.256,1.483,7.284,2.229,12.098,2.229c1.832,0,3.894-0.194,6.184-0.575c2.293-0.38,4.236-0.917,6.955-2.234v-5.793
	c-2.76,1.201-4.596,1.514-6.752,1.871c-2.154,0.363-4.151,0.548-5.854,0.548c-3.979,0-6.894-1.184-8.766-3.188
	c-1.879-1.999-2.814-4.696-2.814-8.075c0-1.607,0.286-3.05,0.854-4.335c0.045-0.103,0.09-0.208,0.143-0.312
	c0.021-0.041,0.048-0.079,0.068-0.121c0.485-0.884,1.113-1.721,1.88-2.515c0.25-0.253,0.51-0.491,0.785-0.718
	c0.067-0.049,0.126-0.102,0.198-0.148c0.174-0.138,0.357-0.271,0.547-0.396c0.116-0.082,0.234-0.165,0.353-0.245
	c1.229-0.766,2.627-1.318,4.11-1.664c0.219-0.046,0.435-0.095,0.654-0.126c3.78-0.728,7.467-0.2,10.54,1.268v2.367l4.053,0.01V3.302
	z"/>
<path fill="#F9C647" d="M76.385,21.821c7.038-3.319,10.466-8.108,13.937-12.452C72.178,19.378,65.252,20.07,65.252,20.07
	c5.213-1.647,10.485-7.585,17.967-12.524c-14.763,4.976-20.288,4.611-20.288,4.611c6.904-1.03,15.113-9.703,27.986-11.805H61.291
	c-0.489,0-0.884,0.392-0.884,0.88v31.698c0,0.492,0.395,0.884,0.884,0.884h31.206c0.489,0,0.88-0.392,0.88-0.884V13.512
	C82.065,22.661,76.385,21.821,76.385,21.821"/>
<path fill="#ADB0AB" d="M122.233,7.033V0.22h-14.973c-3.097,2.334-4.976,5.175-8.253,8.31c-0.858,0.824-1.695,1.592-2.508,2.319
	v23.016h9.835V19.41H118.5v-4.403h-12.243V7.033H122.233z"/>
<polygon fill="#ADB0AB" points="0.063,55.73 0.063,44.82 2.372,44.82 2.372,53.916 5.826,53.916 5.826,55.73 "/>
<path fill="#ADB0AB" d="M10.548,50.273c0-2.885,0-5.635,3.807-5.635c3.806,0,3.806,2.75,3.806,5.635c0,2.857,0,5.639-3.806,5.639
	C10.548,55.912,10.548,53.13,10.548,50.273 M15.823,50.273c0-2.795-0.169-4.004-1.469-4.004s-1.468,1.209-1.468,4.004
	c0,2.797,0.168,4.004,1.468,4.004S15.823,53.07,15.823,50.273"/>
<path fill="#ADB0AB" d="M23.709,50.273c0-2.885,0-5.635,3.807-5.635c2.354,0,3.301,1.283,3.21,3.625h-2.262
	c0-1.451-0.26-1.994-0.948-1.994c-1.3,0-1.468,1.209-1.468,4.004c0,2.797,0.168,4.004,1.468,4.004c1.07,0,1.024-1.359,1.055-2.221
	h2.276c0,2.918-1.176,3.855-3.331,3.855C23.709,55.912,23.709,53.13,23.709,50.273"/>
<path fill="#ADB0AB" d="M35.297,55.73l3.057-10.914h3.04L44.39,55.73h-2.429l-0.612-2.418h-3.149l-0.626,2.418H35.297z
	 M39.743,46.917h-0.029l-1.055,4.715h2.201L39.743,46.917z"/>
<polygon fill="#ADB0AB" points="49.312,55.73 49.312,44.82 51.62,44.82 51.62,53.916 55.074,53.916 55.074,55.73 "/>
<path fill="#ADB0AB" d="M69.412,48.171c0.014-1.01-0.153-1.902-1.375-1.902c-1.438,0-1.438,1.92-1.438,4.035
	c0,3.416,0.335,4.018,1.65,4.018c0.383,0,0.795-0.09,1.147-0.211v-2.418h-1.253v-1.676h3.562v5.531
	c-0.628,0.121-2.203,0.363-3.12,0.363c-3.882,0-4.326-1.59-4.326-5.729c0-2.75,0.14-5.545,3.914-5.545
	c2.261,0,3.668,1.252,3.532,3.533H69.412z"/>
<path fill="#ADB0AB" d="M77.422,50.273c0-2.885,0-5.635,3.805-5.635c3.808,0,3.808,2.75,3.808,5.635c0,2.857,0,5.639-3.808,5.639
	C77.422,55.912,77.422,53.13,77.422,50.273 M82.694,50.273c0-2.795-0.169-4.004-1.468-4.004c-1.298,0-1.467,1.209-1.467,4.004
	c0,2.797,0.169,4.004,1.467,4.004C82.525,54.277,82.694,53.07,82.694,50.273"/>
<polygon fill="#ADB0AB" points="89.802,44.816 92.202,44.816 93.915,52.753 93.945,52.753 95.87,44.816 98.148,44.816 95.228,55.73 
	92.523,55.73 "/>
<polygon fill="#ADB0AB" points="103.009,55.73 103.009,44.82 109.031,44.82 109.031,46.494 105.317,46.494 105.317,49.185 
	108.741,49.185 108.741,50.863 105.317,50.863 105.317,54.052 109.153,54.052 109.153,55.73 "/>
<path fill="#ADB0AB" d="M116.735,55.73h-2.309V44.816h4.266c1.575,0,2.584,0.998,2.584,2.855c0,1.393-0.552,2.438-2.049,2.68v0.029
	c0.503,0.061,2.002,0.18,2.002,2.146c0,0.695,0.047,2.75,0.259,3.203h-2.261c-0.306-0.668-0.245-1.408-0.245-2.117
	c0-1.297,0.122-2.402-1.652-2.402h-0.595V55.73z M116.735,49.535h1.023c0.917,0,1.177-0.91,1.177-1.604
	c0-1.045-0.442-1.438-1.177-1.438h-1.023V49.535z"/>
<polygon fill="#ADB0AB" points="126.808,55.73 126.808,44.82 129.927,44.82 132.86,52.373 132.892,52.373 132.892,44.82 
	135.048,44.82 135.048,55.73 132.005,55.73 128.994,47.751 128.963,47.751 128.963,55.73 "/>
<polygon fill="#ADB0AB" points="140.764,55.73 140.764,44.82 144.478,44.82 146.205,52.236 146.235,52.236 148.07,44.82 
	151.663,44.82 151.663,55.73 149.415,55.73 149.415,47.31 149.385,47.31 147.26,55.73 145.058,55.73 143.039,47.31 143.009,47.31 
	143.009,55.73 "/>
<polygon fill="#ADB0AB" points="157.363,55.73 157.363,44.82 163.386,44.82 163.386,46.494 159.672,46.494 159.672,49.185 
	163.096,49.185 163.096,50.863 159.672,50.863 159.672,54.052 163.509,54.052 163.509,55.73 "/>
<polygon fill="#ADB0AB" points="168.843,55.73 168.843,44.82 171.962,44.82 174.896,52.373 174.927,52.373 174.927,44.82 
	177.083,44.82 177.083,55.73 174.038,55.73 171.028,47.751 170.998,47.751 170.998,55.73 "/>
<polygon fill="#ADB0AB" points="189.417,44.816 189.417,46.63 186.849,46.63 186.849,55.73 184.54,55.73 184.54,46.63 
	181.971,46.63 181.971,44.816 "/>
<path fill="#ADB0AB" d="M199.666,2.935c0,1.372-1.114,2.458-2.446,2.458c-1.32,0-2.446-1.086-2.446-2.458
	c0-1.374,1.139-2.448,2.446-2.448C198.564,0.486,199.666,1.574,199.666,2.935 M195.063,2.935c0,1.215,0.977,2.174,2.156,2.174
	c1.193,0,2.157-0.971,2.157-2.174c0-1.16-0.94-2.158-2.157-2.158C196.04,0.776,195.063,1.749,195.063,2.935 M196.325,1.599h0.934
	c0.194,0,0.892,0,0.892,0.662c0,0.076,0,0.493-0.49,0.634c0.271,0.063,0.361,0.181,0.401,0.505c0.038,0.323,0.064,0.569,0.156,0.829
	h-0.377c-0.05-0.167-0.079-0.272-0.129-0.686c-0.037-0.403-0.144-0.505-0.571-0.505h-0.453v1.19h-0.362V1.599z M196.688,2.726h0.571
	c0.182,0,0.518,0,0.518-0.4c0-0.414-0.323-0.414-0.518-0.414h-0.571V2.726z"/>
</svg>
